<svg xmlns="http://www.w3.org/2000/svg" width="256" height="256" fill="none" viewBox="0 0 256 256"><rect width="256" height="256" fill="#242938" rx="60"/><g><path fill="#FB923C" d="M42 66v102c0 11 26 20 58 20s58-9 58-20V66Z"/><ellipse cx="100" cy="66" rx="58" ry="20" fill="#FDBA74"/><path stroke="#FFF7ED" stroke-width="6" fill="none" d="M42 100c0 11 26 20 58 20s58-9 58-20M42 134c0 11 26 20 58 20s58-9 58-20"/><path stroke="#C2410C" stroke-width="4" stroke-linecap="round" stroke-dasharray="8 13" d="M80 66h40"/><rect x="112" y="118" width="112" height="92" rx="24" fill="#242938"/><rect x="120" y="126" width="96" height="76" rx="18" fill="#F97316"/><text x="168" y="176" font-family="Arial, Helvetica, sans-serif" font-size="40" font-weight="800" fill="#fff" text-anchor="middle" letter-spacing="1">SQL</text></g></svg>
